<svg xmlns="http://www.w3.org/2000/svg" xmlns:xlink="http://www.w3.org/1999/xlink" width="500" height="500" viewBox="0 0 500 500" fill="none"><path d="M244.11 60.71L244.11 439.34C244.11 442.494 241.554 445.05 238.4 445.05L45.3 445.05C42.1464 445.05 39.59 442.494 39.59 439.34L39.59 60.66C39.6174 57.526 42.1658 55 45.3 55L238.4 55C241.554 55 244.11 57.5565 244.11 60.71ZM39.84 439.34L39.84 60.66C39.84 57.6468 42.2868 55.2 45.3 55.2L238.4 55.2C241.413 55.2 243.86 57.6468 243.86 60.66L243.86 439.34C243.86 442.353 241.413 444.8 238.4 444.8L45.3 444.8C42.2868 444.8 39.84 442.353 39.84 439.34Z" fill-rule="evenodd" fill="#EBEBEB" ></path><path d="M460.41 60.71L460.41 439.34C460.41 442.494 457.854 445.05 454.7 445.05L261.6 445.05C258.446 445.05 255.89 442.494 255.89 439.34L255.89 60.66C255.917 57.526 258.466 55 261.6 55L454.7 55C457.854 55 460.41 57.5565 460.41 60.71ZM256.14 439.34L256.14 60.66C256.14 57.6468 258.587 55.2 261.6 55.2L454.7 55.2C457.713 55.2 460.16 57.6468 460.16 60.66L460.16 439.34C460.16 442.353 457.713 444.8 454.7 444.8L261.6 444.8C258.587 444.8 256.14 442.353 256.14 439.34Z" fill-rule="evenodd" fill="#EBEBEB" ></path><path d="M110.44 174.6L107.82 172.05L111.44 171.52L113.05 168.25L113.05 168.25L114.67 171.52L118.29 172.05L115.67 174.6L116.29 178.2L113.05 176.5L109.82 178.2L110.44 174.6Z" fill="#EBEBEB" ></path><path d="M439.94 332.44L436.7 330.74L433.47 332.44L434.09 328.83L431.47 326.29L435.09 325.76L436.7 322.48L436.7 322.48L438.32 325.76L441.94 326.29L439.32 328.83L439.94 332.44Z" fill="#F5F5F5" ></path><path d="M377.83 421.37L375.21 423.92L375.83 427.52L372.6 425.82L369.37 427.52L369.98 423.92L367.37 421.37L370.98 420.84L372.6 417.57L372.6 417.57L374.22 420.84L377.83 421.37Z" fill="#F5F5F5" ></path><path d="M224.55 111.37L225.15 110.15C225.199 109.973 225.361 109.85 225.545 109.85C225.729 109.85 225.891 109.973 225.94 110.15L226.54 111.37L227.89 111.57C228.044 111.59 228.172 111.697 228.219 111.845C228.266 111.993 228.224 112.155 228.11 112.26L227.11 113.21L227.34 114.55C227.364 114.702 227.301 114.855 227.177 114.945C227.052 115.036 226.887 115.049 226.75 114.98L225.55 114.34L224.35 114.98C224.213 115.049 224.048 115.036 223.923 114.945C223.799 114.855 223.736 114.702 223.76 114.55L223.98 113.21L222.98 112.26C222.866 112.153 222.824 111.99 222.874 111.841C222.923 111.693 223.054 111.587 223.21 111.57L224.55 111.37Z" fill="#EBEBEB" ></path><path d="M63.0536 403.688C63.1025 403.837 63.0623 404.001 62.95 404.11L61.95 405.05L62.18 406.39C62.2041 406.542 62.1409 406.695 62.0165 406.785C61.8921 406.876 61.7274 406.889 61.59 406.82L60.39 406.19L59.19 406.82C59.0526 406.889 58.8879 406.876 58.7635 406.785C58.639 406.695 58.5759 406.542 58.6 406.39L58.83 405.05L57.83 404.11C57.7181 404.002 57.6769 403.84 57.7235 403.692C57.7701 403.544 57.8965 403.434 58.05 403.41L59.39 403.21L60 402C60.0548 401.831 60.2123 401.716 60.39 401.716C60.5677 401.716 60.7252 401.831 60.78 402L61.38 403.21L62.72 403.41C62.8752 403.431 63.0047 403.539 63.0536 403.688Z" fill="#F5F5F5" ></path><path d="M85.7257 102.146C85.5983 102.053 85.5373 101.894 85.57 101.74L85.79 100.41L84.79 99.41C84.6777 99.3007 84.6375 99.137 84.6864 98.9882C84.7353 98.8393 84.8648 98.7314 85.02 98.71L86.36 98.52L87 97.3C87.0656 97.1515 87.2126 97.0558 87.375 97.0558C87.5373 97.0558 87.6843 97.1515 87.75 97.3L88.35 98.52L89.7 98.71C89.8535 98.7345 89.9799 98.8437 90.0265 98.992C90.0731 99.1402 90.0318 99.3021 89.92 99.41L88.92 100.41L89.15 101.74C89.1826 101.894 89.1216 102.053 88.9942 102.146C88.8668 102.239 88.6968 102.248 88.56 102.17L87.36 101.54L86.16 102.17C86.0231 102.248 85.8531 102.239 85.7257 102.146Z" fill="#EBEBEB" ></path><path d="M86.13 338.32C86.134 338.859 85.8126 339.347 85.3159 339.556C84.8193 339.765 84.2456 339.654 83.8631 339.274C83.4807 338.894 83.365 338.322 83.5703 337.823C83.7755 337.325 84.2611 337 84.8 337C85.5306 337 86.1245 337.589 86.13 338.32Z" fill="#EBEBEB" ></path><path d="M275.67 171.89C275.674 172.429 275.353 172.917 274.856 173.126C274.359 173.335 273.786 173.224 273.403 172.844C273.021 172.464 272.905 171.892 273.11 171.393C273.316 170.895 273.801 170.57 274.34 170.57C274.692 170.567 275.03 170.705 275.28 170.953C275.53 171.201 275.67 171.538 275.67 171.89Z" fill="#EBEBEB" ></path><path d="M206.71 98.4C206.71 99.1345 206.114 99.73 205.38 99.73C204.645 99.73 204.05 99.1345 204.05 98.4C204.05 97.6655 204.645 97.07 205.38 97.07C206.112 97.0755 206.704 97.6677 206.71 98.4Z" fill="#F5F5F5" ></path><path d="M214.281 413.702C215.214 417.653 212.767 421.611 208.816 422.544C204.865 423.476 200.907 421.029 199.974 417.079C199.042 413.128 201.489 409.169 205.439 408.237C209.39 407.304 213.349 409.751 214.281 413.702Z" fill="#F0F0F0" ></path><path d="M204.6 411.09C203.094 411.087 201.627 411.563 200.41 412.45C199.135 415.375 199.896 418.789 202.292 420.896C204.689 423.003 208.172 423.32 210.91 421.68L210.91 421.68C212.111 419.458 212.055 416.767 210.761 414.597C209.467 412.428 207.126 411.099 204.6 411.1L204.6 411.09Z" fill="#E6E6E6" ></path><path d="M86.83 260.17L147.68 187.83L176.8 187.83L176.8 261.73L191.89 261.73L191.89 287.64L176.8 287.64L176.8 310.12L147.68 310.12L147.68 287.64L86.83 287.64L86.83 260.17ZM115.52 261.73L147.68 223.89L147.68 261.73L115.52 261.73Z" fill-rule="evenodd" fill="#407BFF" ></path><path d="M252.246 187.81Q264.376 187.81 272.176 190.81C276.9 192.512 281.225 195.163 284.886 198.6C287.972 201.546 290.586 204.949 292.636 208.69C294.665 212.596 296.194 216.742 297.186 221.03C299.447 230.191 300.575 239.594 300.546 249.03C300.546 270.843 296.856 286.807 289.476 296.92C282.096 307.033 269.386 312.1 251.346 312.1Q236.166 312.1 226.816 307.26C220.533 303.981 215.24 299.082 211.486 293.07Q207.136 286.43 204.716 274.9C203.041 266.542 202.23 258.034 202.296 249.51Q202.296 215.22 214.636 201.51C222.863 192.37 235.399 187.81 252.246 187.81ZM251.259 289.37C246.112 289.343 242.189 286.54 239.489 280.96Q235.439 272.59 235.439 249.59C235.399 234.47 236.619 224.107 239.099 218.5Q242.819 210.09 251.099 210.09C256.512 210.09 260.572 212.83 263.279 218.33Q267.339 226.58 267.339 250.52C267.339 261.38 266.752 269.38 265.579 274.52C264.406 279.66 262.572 283.42 260.079 285.8C257.734 288.121 254.558 289.407 251.259 289.37Z" fill-rule="evenodd" fill="#407BFF" ></path><path d="M371.74 287.64L310.89 287.64L310.89 260.17L371.74 187.83L400.86 187.83L400.86 261.73L416 261.73L416 287.64L400.86 287.64L400.86 310.12L371.74 310.12L371.74 287.64ZM339.59 261.73L371.74 223.89L371.74 261.73L339.59 261.73Z" fill-rule="evenodd" fill="#407BFF" ></path><g opacity="0.30000000000000004"><path d="M201 145.62C201 146.377 200.543 147.06 199.843 147.349C199.143 147.637 198.338 147.476 197.804 146.939C197.27 146.402 197.113 145.596 197.405 144.897C197.698 144.199 198.383 143.746 199.14 143.75C199.635 143.75 200.11 143.947 200.459 144.298C200.808 144.649 201.003 145.125 201 145.62Z" fill="#407BFF" ></path><path d="M74.29 216.13C74.29 216.859 73.699 217.45 72.97 217.45C72.241 217.45 71.65 216.859 71.65 216.13C71.65 215.401 72.241 214.81 72.97 214.81C73.699 214.81 74.29 215.401 74.29 216.13Z" fill="#407BFF" ></path><path d="M292.94 408.33C292.94 409.374 292.094 410.22 291.05 410.22C290.006 410.22 289.16 409.374 289.16 408.33C289.16 407.286 290.006 406.44 291.05 406.44C292.094 406.44 292.94 407.286 292.94 408.33Z" fill="#407BFF" ></path><path d="M337.82 332C337.82 332.729 337.229 333.32 336.5 333.32C335.771 333.32 335.18 332.729 335.18 332C335.18 331.271 335.771 330.68 336.5 330.68C337.229 330.68 337.82 331.271 337.82 332Z" fill="#407BFF" ></path><path d="M424.17 95.62C424.17 96.1539 423.848 96.6352 423.355 96.8395C422.862 97.0438 422.294 96.9309 421.917 96.5534C421.539 96.1758 421.426 95.6081 421.631 95.1148C421.835 94.6216 422.316 94.3 422.85 94.3C423.579 94.3 424.17 94.891 424.17 95.62Z" fill="#407BFF" ></path><path d="M172.75 69C172.75 69.5339 172.428 70.0152 171.935 70.2195C171.442 70.4238 170.874 70.3109 170.497 69.9334C170.119 69.5559 170.006 68.9881 170.211 68.4949C170.415 68.0016 170.896 67.68 171.43 67.68C172.157 67.6854 172.745 68.2732 172.75 69Z" fill="#407BFF" ></path><path d="M279.02 136.94C279.02 137.669 278.429 138.26 277.7 138.26C276.971 138.26 276.38 137.669 276.38 136.94C276.38 136.211 276.971 135.62 277.7 135.62C278.429 135.62 279.02 136.211 279.02 136.94Z" fill="#407BFF" ></path></g><path d="M163.14 116.36C163.14 128.461 153.331 138.27 141.23 138.27C129.13 138.27 119.32 128.461 119.32 116.36C119.32 104.259 129.13 94.45 141.23 94.45C153.331 94.45 163.14 104.259 163.14 116.36Z" fill="#407BFF" ></path><g opacity="0.7"><path d="M163.14 116.36C163.14 128.461 153.331 138.27 141.23 138.27C129.13 138.27 119.32 128.461 119.32 116.36C119.32 104.259 129.13 94.45 141.23 94.45C153.331 94.45 163.14 104.259 163.14 116.36Z" fill="#FFFFFF" ></path></g><g opacity="0.2"><path d="M133.68 99.83C130.696 99.8209 127.742 100.423 125 101.6C118.056 109.232 117.375 120.673 123.364 129.075C129.353 137.477 140.391 140.565 149.87 136.49L149.87 136.49C155.698 130.068 157.191 120.814 153.68 112.884C150.168 104.955 142.312 99.8412 133.64 99.84L133.68 99.83Z" fill="#407BFF" ></path></g><g opacity="0.2"><path d="M131.5 105.62C131.5 106.724 130.604 107.62 129.5 107.62C128.396 107.62 127.5 106.724 127.5 105.62C127.5 104.516 128.396 103.62 129.5 103.62C130.604 103.62 131.5 104.516 131.5 105.62Z" fill="#407BFF" ></path></g><g opacity="0.2"><path d="M155.06 103.62C155.06 104.724 154.164 105.62 153.06 105.62C151.956 105.62 151.06 104.724 151.06 103.62C151.06 102.516 151.956 101.62 153.06 101.62C154.164 101.62 155.06 102.516 155.06 103.62Z" fill="#407BFF" ></path></g><g opacity="0.2"><path d="M151.06 117.9C151.06 119.711 149.591 121.18 147.78 121.18C145.969 121.18 144.5 119.711 144.5 117.9C144.5 116.089 145.969 114.62 147.78 114.62C149.591 114.62 151.06 116.089 151.06 117.9Z" fill="#407BFF" ></path></g><g opacity="0.2"><path d="M140.64 127.25C140.64 129.022 139.573 130.619 137.936 131.297C136.299 131.975 134.416 131.6 133.163 130.347C131.91 129.094 131.535 127.211 132.213 125.574C132.891 123.937 134.488 122.87 136.26 122.87C138.679 122.87 140.64 124.831 140.64 127.25Z" fill="#407BFF" ></path></g><path d="M386.601 357.513C396.938 359.953 403.339 370.31 400.9 380.646C398.46 390.983 388.103 397.384 377.767 394.945C367.43 392.505 361.028 382.148 363.468 371.811C365.908 361.475 376.265 355.073 386.601 357.513Z" fill="#407BFF" ></path><g opacity="0.30000000000000004"><path d="M386.601 357.513C396.938 359.953 403.339 370.31 400.9 380.646C398.46 390.983 388.103 397.384 377.767 394.945C367.43 392.505 361.028 382.148 363.468 371.811C365.908 361.475 376.265 355.073 386.601 357.513Z" fill="#FFFFFF" ></path></g><g opacity="0.4"><path d="M394.33 361.34C385.539 358.687 376.099 362.623 371.796 370.735C367.494 378.848 369.532 388.871 376.66 394.66C378.453 395.205 380.316 395.481 382.19 395.48C390.325 395.478 397.579 390.358 400.304 382.693C403.03 375.028 400.637 366.478 394.33 361.34Z" fill="#407BFF" ></path></g><path d="M363.83 382C343.3 391.66 358.61 399.11 387.54 388.71C414.33 379.08 424.54 366.94 400.54 370.71C401.83 375.76 368.28 388.83 363.83 382Z" fill="#407BFF" ></path><g opacity="0.2"><path d="M394.1 187.83C367.21 206 332.4 230 322.79 287.64L320.74 287.64C330.09 230.64 363.63 206.07 390.53 187.83L394.1 187.83Z" fill="#000000" ></path></g><path d="M213 348.08C207.95 340.34 202.08 324.13 219.56 302.5L221.11 303.76C208.75 319.06 206.47 334.41 214.68 346.99C224.68 362.29 248.27 369.99 268.41 364.51C289.04 358.9 301.56 340.96 302.77 315.29C306.9 227.48 353.55 200.43 387.61 180.68C408.78 168.41 424.07 159.55 420.71 140.84C420.24 138.25 419.21 136.46 417.54 135.36C413.19 132.49 404.69 134.48 394.85 136.77C375.54 141.27 349.1 147.43 333.35 120.64L335.08 119.64C350.08 145.17 374.65 139.44 394.4 134.84C404.69 132.45 413.57 130.38 418.64 133.71C420.79 135.12 422.11 137.35 422.64 140.51C426.25 160.59 409.64 170.23 388.59 182.43C354.92 201.95 308.82 228.68 304.74 315.43C303.48 342.03 290.42 360.64 268.9 366.49C264.366 367.697 259.692 368.296 255 368.27C238 368.27 221.19 360.6 213 348.08Z" fill="#407BFF" ></path><g opacity="0.2"><path d="M387.61 180.68C408.78 168.41 424.07 159.55 420.71 140.84C420.24 138.25 419.21 136.46 417.54 135.36C413.19 132.49 404.69 134.48 394.85 136.77C375.54 141.27 349.1 147.43 333.35 120.64L335.08 119.64C350.08 145.17 374.65 139.44 394.4 134.84C404.69 132.45 413.57 130.38 418.64 133.71C420.79 135.12 422.11 137.35 422.64 140.51C426.25 160.59 409.64 170.23 388.59 182.43C354.92 201.95 308.82 228.68 304.74 315.43C303.48 342.03 290.42 360.64 268.9 366.49C264.366 367.697 259.692 368.296 255 368.27C238 368.27 221.19 360.6 213 348.08C207.95 340.34 202.08 324.13 219.56 302.5L221.11 303.76C208.75 319.06 206.47 334.41 214.68 346.99C224.68 362.29 248.27 369.99 268.41 364.51C289.04 358.9 301.56 340.96 302.77 315.29C306.9 227.48 353.55 200.43 387.61 180.68Z" fill="#FFFFFF" ></path></g><path d="M312.76 97C317.368 97.0266 321.945 97.7446 326.34 99.13C326.34 99.13 337.34 117.9 338.64 122.2C338.18 126.44 331.03 133.39 331.03 133.39L312.76 97Z" fill="#407BFF" ></path><g opacity="0.30000000000000004"><path d="M312.76 97C317.368 97.0266 321.945 97.7446 326.34 99.13C326.34 99.13 337.34 117.9 338.64 122.2C338.18 126.44 331.03 133.39 331.03 133.39L312.76 97Z" fill="#FFFFFF" ></path></g><path d="M326.87 183.29C328.22 184.97 329.52 186.7 330.87 188.39C332.22 190.08 333.58 191.45 334.87 193.04C336.82 195.45 337.46 197.76 335.99 200.6L335.74 201.05C335.32 201.79 337.28 202.63 338.52 201.05C340.52 198.47 340.24 198.63 341.98 196.43C343.04 195.1 344.25 193.65 345.3 192.43C346.345 191.193 346.362 189.387 345.34 188.13C341.104 182.95 337.241 177.477 333.78 171.75C332.94 170.303 332.143 168.83 331.39 167.33C330.96 166.48 330.55 165.63 330.15 164.77C329.625 163.933 329.218 163.028 328.94 162.08C327.74 149.41 332.08 140.08 327.94 129.91L311.46 136.35C311.46 136.35 312.86 154.47 316.06 165.35C318.06 172.08 322.54 177.9 326.87 183.29Z" fill="#407BFF" ></path><g opacity="0.7"><path d="M311.46 136.35C311.46 136.35 312.86 154.47 316.06 165.35C318.06 172.08 322.54 177.9 326.87 183.29C328.22 184.97 329.52 186.7 330.87 188.39C332.22 190.08 333.58 191.45 334.87 193.04C336.82 195.45 337.46 197.76 335.99 200.6L335.74 201.05C335.32 201.79 337.28 202.63 338.52 201.05C340.52 198.47 340.24 198.63 341.98 196.43C343.04 195.1 344.25 193.65 345.3 192.43C346.345 191.193 346.362 189.387 345.34 188.13C341.104 182.95 337.241 177.477 333.78 171.75C332.94 170.303 332.143 168.83 331.39 167.33C330.96 166.48 330.55 165.63 330.15 164.77C329.625 163.933 329.218 163.028 328.94 162.08C327.74 149.41 332.08 140.08 327.94 129.91L311.46 136.35Z" fill="#FFFFFF" ></path></g><g opacity="0.30000000000000004"><path d="M341.31 182.92C338.695 185.723 335.792 188.244 332.65 190.44C333.08 190.92 333.5 191.44 333.93 191.9C337.076 189.775 339.933 187.25 342.43 184.39L341.31 182.92Z" fill="#407BFF" ></path></g><g opacity="0.30000000000000004"><path d="M345.34 188.13L345.22 187.99C344.451 188.873 344.003 189.99 343.95 191.16C343.886 191.962 344.016 192.769 344.33 193.51L345.28 192.38C346.303 191.156 346.329 189.382 345.34 188.13Z" fill="#407BFF" ></path></g><path d="M291.7 111.95L292.03 111.78C292.474 111.541 292.905 111.277 293.32 110.99C294.215 110.359 295.051 109.65 295.82 108.87C297.567 107.039 299.203 105.106 300.72 103.08C302.442 101.153 305.349 100.856 307.425 102.395C309.502 103.934 310.063 106.802 308.72 109.01L308.84 109C307.053 111.675 304.91 114.094 302.47 116.19C301.117 117.356 299.634 118.363 298.05 119.19C297.218 119.616 296.356 119.981 295.47 120.28L294.79 120.5L294.57 120.56L294.1 120.69C293.811 120.759 293.516 120.805 293.22 120.83C292.376 120.895 291.528 120.817 290.71 120.6C289.679 120.307 288.69 119.88 287.77 119.33C287.03 118.897 286.312 118.427 285.62 117.92C284.37 116.99 283.174 115.988 282.04 114.92C279.853 112.847 277.845 110.593 276.04 108.18C275.323 107.21 275.397 105.868 276.216 104.983C277.035 104.097 278.368 103.92 279.39 104.56L279.47 104.56C281.83 106.06 284.21 107.64 286.53 109.05C287.71 109.74 288.85 110.44 289.98 110.98C290.496 111.25 291.027 111.49 291.57 111.7C291.908 111.849 292.271 111.937 292.64 111.96C292.7 111.96 292.64 111.89 292.27 111.9C292.153 111.893 292.037 111.893 291.92 111.9L291.7 111.95Z" fill-rule="evenodd" fill="#407BFF" ></path><g opacity="0.7"><path d="M276.216 104.983C277.035 104.097 278.368 103.92 279.39 104.56L279.47 104.56C281.83 106.06 284.21 107.64 286.53 109.05C287.71 109.74 288.85 110.44 289.98 110.98C290.496 111.25 291.027 111.49 291.57 111.7C291.908 111.849 292.271 111.937 292.64 111.96C292.7 111.96 292.64 111.89 292.27 111.9C292.153 111.893 292.037 111.893 291.92 111.9L291.7 111.95L292.03 111.78C292.474 111.541 292.905 111.277 293.32 110.99C294.215 110.359 295.051 109.65 295.82 108.87C297.567 107.039 299.203 105.106 300.72 103.08C302.442 101.153 305.349 100.856 307.425 102.395C309.502 103.934 310.063 106.802 308.72 109.01L308.84 109C307.053 111.675 304.91 114.094 302.47 116.19C301.117 117.356 299.634 118.363 298.05 119.19C297.218 119.616 296.356 119.981 295.47 120.28L294.79 120.5L294.57 120.56L294.1 120.69C293.811 120.759 293.516 120.805 293.22 120.83C292.376 120.895 291.528 120.817 290.71 120.6C289.679 120.307 288.69 119.88 287.77 119.33C287.03 118.897 286.312 118.427 285.62 117.92C284.37 116.99 283.174 115.988 282.04 114.92C279.853 112.847 277.845 110.593 276.04 108.18C275.323 107.21 275.397 105.868 276.216 104.983Z" fill-rule="evenodd" fill="#FFFFFF" ></path></g><path d="M273.46 104.42C273.46 104.42 274.35 107.04 276.14 107.52L281 105.95L280.75 105.54L280.75 105.54C280.13 104.6 280.2 102.77 280.41 101.25C280.62 99.73 279.84 99.68 279.26 100.06C278.849 100.533 278.56 101.099 278.42 101.71C278.181 101.38 277.917 101.069 277.63 100.78L276.15 99.3C275.506 98.6705 274.485 98.6443 273.81 99.24L272.61 100.31C272.024 100.852 271.891 101.728 272.29 102.42L273.46 104.42Z" fill="#407BFF" ></path><g opacity="0.7"><path d="M273.81 99.24L272.61 100.31C272.024 100.852 271.891 101.728 272.29 102.42L273.46 104.42C273.46 104.42 274.35 107.04 276.14 107.52L281 105.95L280.75 105.54L280.75 105.54C280.13 104.6 280.2 102.77 280.41 101.25C280.62 99.73 279.84 99.68 279.26 100.06C278.849 100.533 278.56 101.099 278.42 101.71C278.181 101.38 277.917 101.069 277.63 100.78L276.15 99.3C275.506 98.6705 274.485 98.6443 273.81 99.24Z" fill="#FFFFFF" ></path></g><path d="M317.67 95.22C312.279 96.6489 307.116 98.8268 302.33 101.69C300.801 102.647 300.028 104.453 300.39 106.22C302.32 115.66 306.71 128.3 311.45 136.35L333.56 127.2C333.71 123.3 328.34 110.68 322.87 98.48C321.89 96.29 320 94.66 317.67 95.22Z" fill="#407BFF" ></path><g opacity="0.8"><path d="M317.67 95.22C312.279 96.6489 307.116 98.8268 302.33 101.69C300.801 102.647 300.028 104.453 300.39 106.22C302.32 115.66 306.71 128.3 311.45 136.35L333.56 127.2C333.71 123.3 328.34 110.68 322.87 98.48C321.89 96.29 320 94.66 317.67 95.22Z" fill="#FFFFFF" ></path></g><g opacity="0.30000000000000004"><path d="M326.3 106.21L321.91 104.74C322.91 107.31 326.44 110.56 328.91 112.47C328.11 110.47 327.22 108.37 326.3 106.21Z" fill="#407BFF" ></path></g><path d="M303.23 101.41C310.89 101.21 316.56 98.29 318.61 95.48C317.84 91.92 318 88.78 316.22 85.32C314.39 81.84 310.44 80.09 305.7 80.48C301.7 80.82 298.16 84.9 298.58 87.1C299 89.3 302.36 90.24 303 91L300.23 93C299.567 93.4786 299.128 94.2071 299.015 95.017C298.901 95.8269 299.124 96.6479 299.63 97.29C300.8 98.77 302.34 100.29 303.23 101.41Z" fill="#407BFF" ></path><g opacity="0.8"><path d="M316.22 85.32C314.39 81.84 310.44 80.09 305.7 80.48C301.7 80.82 298.16 84.9 298.58 87.1C299 89.3 302.36 90.24 303 91L300.23 93C299.567 93.4786 299.128 94.2071 299.015 95.017C298.901 95.8269 299.124 96.6479 299.63 97.29C300.8 98.77 302.34 100.29 303.23 101.41C310.89 101.21 316.56 98.29 318.61 95.48C317.84 91.92 318 88.78 316.22 85.32Z" fill="#FFFFFF" ></path></g><path d="M312.46 87.48C313.978 91.3743 312.053 95.7622 308.16 97.2819C304.266 98.8017 299.877 96.8781 298.356 92.9848C296.835 89.0916 298.757 84.7024 302.65 83.18C306.546 81.6622 310.936 83.5862 312.46 87.48Z" fill="#263238" ></path><path d="M337.09 162.2C341.46 167.02 348.31 169.2 354.42 170.78C358.83 171.91 363.3 172.78 367.77 173.61C369.51 173.93 371.4 174.05 372.9 175.09C374.01 175.941 374.771 177.168 375.04 178.54C375.107 178.82 375.167 179.1 375.22 179.38C375.41 180.22 377.46 179.58 377.39 177.6C377.28 174.31 377.13 174.6 377.04 171.83C376.98 170.13 376.97 168.24 376.96 166.61C376.953 165.014 375.825 163.643 374.26 163.33C372.94 163.06 371.61 162.81 370.26 162.53C368.53 162.16 366.82 161.76 365.13 161.27C363.81 160.89 362.51 160.47 361.22 160C359.93 159.53 358.48 159 357.14 158.38C355.56 157.71 354 156.99 352.46 156.24C350.73 155.42 349.02 154.56 347.31 153.69C340.73 142.8 340.59 135.62 333.53 127.2L318.37 134.06C318.37 134.06 329.51 153.82 337.09 162.2Z" fill="#407BFF" ></path><g opacity="0.8"><path d="M372.9 175.09C374.01 175.941 374.771 177.168 375.04 178.54C375.107 178.82 375.167 179.1 375.22 179.38C375.41 180.22 377.46 179.58 377.39 177.6C377.28 174.31 377.13 174.6 377.04 171.83C376.98 170.13 376.97 168.24 376.96 166.61C376.953 165.014 375.825 163.643 374.26 163.33C372.94 163.06 371.61 162.81 370.26 162.53C368.53 162.16 366.82 161.76 365.13 161.27C363.81 160.89 362.51 160.47 361.22 160C359.93 159.53 358.48 159 357.14 158.38C355.56 157.71 354 156.99 352.46 156.24C350.73 155.42 349.02 154.56 347.31 153.69C340.73 142.8 340.59 135.62 333.53 127.2L318.37 134.06C318.37 134.06 329.51 153.82 337.09 162.2C341.46 167.02 348.31 169.2 354.42 170.78C358.83 171.91 363.3 172.78 367.77 173.61C369.51 173.93 371.4 174.05 372.9 175.09Z" fill="#FFFFFF" ></path></g><g opacity="0.30000000000000004"><path d="M369.7 162.4C369.1 162.27 368.5 162.14 367.89 161.99C367.94 165.45 366.32 171.41 365.73 173.22L367.63 173.58C368.875 169.978 369.573 166.209 369.7 162.4Z" fill="#407BFF" ></path></g><g opacity="0.30000000000000004"><path d="M377 166.61C376.994 165.017 375.871 163.648 374.31 163.33L373.31 163.14C373.471 164.277 374.052 165.312 374.94 166.04C375.511 166.568 376.195 166.958 376.94 167.18C377 167 377 166.8 377 166.61Z" fill="#407BFF" ></path></g><path d="M311.05 87.54C311.45 89.06 309.75 90.65 308.4 89.34C307.14 87.9891 305.761 86.7541 304.28 85.65C302.89 84.78 304.74 83.26 306.93 83.85C308.827 84.3266 310.368 85.7067 311.05 87.54Z" fill="#FFFFFF" ></path><path d="M311.16 135.86C310.46 136.12 311.74 137.32 311.74 137.32C311.74 137.32 325.74 132.53 334.24 127.6C334.282 126.994 334.028 126.406 333.56 126.02C326.285 129.721 318.807 133.006 311.16 135.86Z" fill="#407BFF" ></path><g opacity="0.5"><path d="M311.16 135.86C310.46 136.12 311.74 137.32 311.74 137.32C311.74 137.32 325.74 132.53 334.24 127.6C334.282 126.994 334.028 126.406 333.56 126.02C326.285 129.721 318.807 133.006 311.16 135.86Z" fill="#FFFFFF" ></path></g><path d="M339.16 106.4C339.48 106.75 339.75 107.09 340.01 107.4C340.27 107.71 340.55 108.08 340.78 108.4C341.712 109.686 342.573 111.021 343.36 112.4C344.91 115.074 346.247 117.866 347.36 120.75C347.784 121.873 347.357 123.14 346.338 123.777C345.32 124.413 343.994 124.243 343.17 123.37L343.12 123.31C341.12 121.18 339.19 118.94 337.25 116.85C335.31 114.76 333.34 112.64 331.71 111.71C329.44 110.3 326.91 108.89 324.4 107.51L316.84 103.31L316.84 103.31C314.399 102.018 313.468 98.9911 314.76 96.55C316.052 94.1089 319.079 93.1777 321.52 94.47L321.46 94.56C324.22 95.96 326.81 97.43 329.46 99.06C330.75 99.88 332.03 100.71 333.3 101.61C334.57 102.51 335.83 103.43 337.1 104.47L337.57 104.86L338.16 105.4C338.512 105.715 338.845 106.048 339.16 106.4Z" fill="#407BFF" ></path><g opacity="0.8"><path d="M339.16 106.4C339.48 106.75 339.75 107.09 340.01 107.4C340.27 107.71 340.55 108.08 340.78 108.4C341.712 109.686 342.573 111.021 343.36 112.4C344.91 115.074 346.247 117.866 347.36 120.75C347.784 121.873 347.357 123.14 346.338 123.777C345.32 124.413 343.994 124.243 343.17 123.37L343.12 123.31C341.12 121.18 339.19 118.94 337.25 116.85C335.31 114.76 333.34 112.64 331.71 111.71C329.44 110.3 326.91 108.89 324.4 107.51L316.84 103.31L316.84 103.31C314.399 102.018 313.468 98.9911 314.76 96.55C316.052 94.1089 319.079 93.1777 321.52 94.47L321.46 94.56C324.22 95.96 326.81 97.43 329.46 99.06C330.75 99.88 332.03 100.71 333.3 101.61C334.57 102.51 335.83 103.43 337.1 104.47L337.57 104.86L338.16 105.4C338.512 105.715 338.845 106.048 339.16 106.4Z" fill="#FFFFFF" ></path></g><path d="M347.75 128.64L349.11 127.77C349.766 127.321 350.023 126.478 349.73 125.74L348.88 123.61C348.88 123.61 348.41 120.89 346.72 120.13L341.72 120.92L341.89 121.36L341.89 121.36C342.35 122.36 342 124.19 341.55 125.65C341.1 127.11 341.86 127.3 342.5 127.01C342.86 126.85 343.21 126.2 343.59 125.51C343.776 125.858 343.987 126.192 344.22 126.51L345.45 128.2C345.983 128.926 346.986 129.118 347.75 128.64Z" fill="#407BFF" ></path><g opacity="0.8"><path d="M341.55 125.65C341.1 127.11 341.86 127.3 342.5 127.01C342.86 126.85 343.21 126.2 343.59 125.51C343.776 125.858 343.987 126.192 344.22 126.51L345.45 128.2C345.983 128.926 346.986 129.118 347.75 128.64L349.11 127.77C349.766 127.321 350.023 126.478 349.73 125.74L348.88 123.61C348.88 123.61 348.41 120.89 346.72 120.13L341.72 120.92L341.89 121.36L341.89 121.36C342.35 122.36 342 124.19 341.55 125.65Z" fill="#FFFFFF" ></path></g><g opacity="0.30000000000000004"><path d="M317.24 106.06L316.02 106.16L308.53 124.24C308.939 124.269 309.351 124.236 309.75 124.14C309.75 124.14 319.51 120.5 322.46 119.14C320.48 115.05 317.24 106.06 317.24 106.06Z" fill="#407BFF" ></path></g><path d="M303.57 110.8C304.48 115.526 306.17 120.068 308.57 124.24C312.23 122.98 318.33 120.6 321.29 119.24C319.3 114.975 317.535 110.609 316 106.16C312.87 106.37 306 109 303.57 110.8Z" fill="#FFFFFF" ></path><g opacity="0.30000000000000004"><path d="M311 114.71C310.701 115.71 309.829 116.431 308.79 116.538C307.752 116.644 306.752 116.114 306.257 115.195C305.762 114.276 305.869 113.15 306.529 112.341C307.188 111.532 308.27 111.2 309.27 111.5C310.633 111.909 311.408 113.346 311 114.71Z" fill="#407BFF" ></path></g><g opacity="0.6000000000000001"><path d="M312.91 111.27C312.83 111.612 312.549 111.869 312.201 111.918C311.854 111.968 311.512 111.798 311.341 111.492C311.169 111.186 311.203 110.806 311.427 110.535C311.65 110.265 312.017 110.16 312.35 110.27C312.77 110.404 313.015 110.841 312.91 111.27Z" fill="#407BFF" ></path></g><g opacity="0.6000000000000001"><path d="M315.15 110.4C315.086 110.716 314.848 110.969 314.536 111.053C314.224 111.136 313.892 111.036 313.679 110.793C313.466 110.551 313.408 110.209 313.53 109.91C313.595 109.696 313.742 109.517 313.939 109.412C314.136 109.307 314.366 109.285 314.58 109.35C315.025 109.485 315.279 109.953 315.15 110.4Z" fill="#407BFF" ></path></g><g opacity="0.5"><path d="M318.29 118.19L309.04 121.84L308.49 120.02L317.73 116.37L318.29 118.19L318.29 118.19Z" fill="#407BFF" ></path></g><g opacity="0.2"><path d="M217.06 300.11C219.918 303.006 223.215 305.433 226.83 307.3C233.057 310.52 241.23 312.133 251.35 312.14C253.13 312.14 254.85 312.09 256.52 311.99C262.643 302.931 267.709 293.201 271.62 282.99L286.47 244.27L267.26 257.17C267.239 262.993 266.676 268.801 265.58 274.52C264.4 279.66 262.567 283.42 260.08 285.8C257.74 288.123 254.566 289.409 251.27 289.37C246.13 289.37 242.207 286.567 239.5 280.96C239.024 279.953 238.62 278.914 238.29 277.85C232.574 282.76 227.251 288.109 222.37 293.85L217.06 300.11Z" fill="#000000" ></path></g><path d="M133.39 310L150.89 327.5L199.89 281.33C183 274.88 150.16 293.19 133.39 310Z" fill="#263238" ></path><path d="M194.42 371C188.83 365.4 176.92 353.5 176.92 353.5L223.09 304.5C229.5 321.35 211.19 354.22 194.42 371Z" fill="#263238" ></path><path d="M261.4 260.7L280.49 223.89L243.68 243C231.856 249.132 220.939 256.872 211.24 266L148.49 325.07L179.32 355.9L238.39 293.15C247.522 283.448 255.266 272.528 261.4 260.7Z" fill="#407BFF" ></path><g opacity="0.6000000000000001"><path d="M261.4 260.7L280.49 223.89L243.68 243C231.856 249.132 220.939 256.872 211.24 266L148.49 325.07L179.32 355.9L238.39 293.15C247.522 283.448 255.266 272.528 261.4 260.7Z" fill="#FFFFFF" ></path></g><path d="M235.1 282.18C235.1 289.305 229.325 295.08 222.2 295.08C215.076 295.08 209.3 289.305 209.3 282.18C209.3 275.056 215.076 269.28 222.2 269.28C229.325 269.28 235.1 275.056 235.1 282.18Z" fill="#FFFFFF" ></path><path d="M230.49 282.18C230.49 286.758 226.778 290.47 222.2 290.47C217.622 290.47 213.91 286.758 213.91 282.18C213.91 277.602 217.622 273.89 222.2 273.89C226.778 273.89 230.49 277.602 230.49 282.18Z" fill="#407BFF" ></path><g opacity="0.30000000000000004"><path d="M189.75 344.82L159.56 314.63L184.28 291.37L213.01 320.11L189.75 344.82L189.75 344.82Z" fill="#407BFF" ></path></g><path d="M145.36 381.69C144.893 384.931 144.057 388.108 142.87 391.16C142.422 392.265 142.734 393.532 143.643 394.302C144.553 395.073 145.854 395.173 146.87 394.55C155.38 389.22 166.06 379.4 166.77 363.47C160.51 354.6 140.22 337.62 140.22 337.62C117.62 339.45 110.13 353.92 107.57 373.15C106.27 382.96 105.69 392.89 97.46 398.63C96.4431 399.321 96.0035 400.6 96.3805 401.77C96.7575 402.941 97.8609 403.722 99.09 403.69C129.43 402.74 143.58 387.89 145.36 381.69Z" fill="#407BFF" ></path><g opacity="0.2"><path d="M96.3805 401.77C96.7575 402.941 97.8609 403.722 99.09 403.69C129.43 402.74 143.58 387.89 145.36 381.69C144.893 384.931 144.057 388.108 142.87 391.16C142.422 392.265 142.734 393.532 143.643 394.302C144.553 395.073 145.854 395.173 146.87 394.55C155.38 389.22 166.06 379.4 166.77 363.47C160.51 354.6 140.22 337.62 140.22 337.62C117.62 339.45 110.13 353.92 107.57 373.15C106.27 382.96 105.69 392.89 97.46 398.63C96.4431 399.321 96.0035 400.6 96.3805 401.77Z" fill="#FFFFFF" ></path></g><path d="M170.28 370.3L134.08 334.1L153.36 329.93L174.45 351.02L170.28 370.3L170.28 370.3Z" fill="#407BFF" ></path></svg>