<svg xmlns="http://www.w3.org/2000/svg" xmlns:xlink="http://www.w3.org/1999/xlink" width="104.99006032943726" height="61.16000270843506" viewBox="0 0 104.99006032943726 61.16000270843506" fill="none"><path d="M54.03 13.6L54.03 14.17L54.79 14.09C55.17 14.09 55.56 13.96 55.56 13.96L55.42 13.39C55.1858 13.4429 54.9486 13.4829 54.7099 13.51L54.03 13.6Z" fill="#FFB502" ></path><path d="M51.83 13.6L51.83 14.18C51.83 14.18 52.2101 14.18 52.6 14.18L53.37 14.18L53.37 13.6L52.63 13.6C52.2001 13.64 51.83 13.6 51.83 13.6Z" fill="#FFB502" ></path><path d="M49.6901 13.21L49.52 13.77L50.28 13.96C50.6501 14.04 51.04 14.09 51.04 14.09L51.12 13.52C51.12 13.52 50.7499 13.52 50.4 13.4L49.6901 13.21Z" fill="#FFB502" ></path><path d="M47.72 12.35L47.4 12.84L48.09 13.21C48.244 13.3025 48.4085 13.3764 48.58 13.43L48.8101 13.52L49.02 12.98C48.7903 12.9028 48.5664 12.8092 48.35 12.6999L47.72 12.35Z" fill="#FFB502" ></path><path d="M46.09 10.94L45.65 11.33L46.19 11.89C46.3685 12.0771 46.5662 12.2446 46.78 12.39L47.14 11.9301C46.9418 11.7952 46.7577 11.6412 46.59 11.47L46.09 10.94Z" fill="#FFB502" ></path><path d="M44.98 9.11L44.45 9.35L44.77 10.0601C44.99 10.3801 45.2001 10.71 45.2001 10.71L45.68 10.37L45.28 9.77L44.98 9.11Z" fill="#FFB502" ></path><path d="M44.29 6.93L43.77 7.24002L44.15 8.64L44.7 8.43993L44.29 6.93Z" fill="#FFB502" ></path><path d="M43.61 4.77L43.16 5.22L43.42 5.90002C43.4922 6.13006 43.5523 6.36375 43.6 6.6L44.1 6.24004C44.1 6.24004 44.01 5.85995 43.89 5.48992L43.61 4.77Z" fill="#FFB502" ></path><path d="M42.49 2.77L42.14 3.32998C42.14 3.32998 42.35 3.61996 42.5499 3.92992L42.88 4.57L43.3 4.08994C43.3 4.08994 43.12 3.74002 42.93 3.4C42.74 3.05998 42.49 2.77 42.49 2.77Z" fill="#FFB502" ></path><path d="M40.8601 1.11L40.62 1.75006L41.19 2.19994C41.45 2.45006 41.7 2.73 41.7 2.73L42.01 2.12995C42.01 2.12995 41.7499 1.85002 41.47 1.57996L40.8601 1.11Z" fill="#FFB502" ></path><path d="M38.78 0.21L38.68 0.899946C39.1546 0.996588 39.6128 1.16167 40.04 1.39L40.23 0.730026C39.7724 0.49202 39.2847 0.317026 38.78 0.21Z" fill="#FFB502" ></path><path d="M36.47 0.21L36.47 0.9L37.19 0.79L37.91 0.79L37.97 0.1C37.97 0.1 37.58 0.1 37.19 0.1L36.47 0.21Z" fill="#FFB502" ></path><path d="M34.35 1.07L34.53 1.73C34.9211 1.46996 35.3404 1.25533 35.78 1.09006L35.78 0.41C35.2795 0.574076 34.7996 0.795572 34.35 1.07Z" fill="#FFB502" ></path><path d="M32.61 2.57002L32.91 3.15L33.0599 2.98005C33.1623 2.85003 33.2762 2.72958 33.4 2.62002L33.94 2.12997L33.72 1.5L33.14 2.01002C33.0041 2.1237 32.8801 2.25108 32.77 2.39001L32.61 2.57002Z" fill="#FFB502" ></path><path d="M31.3 4.47008L31.71 4.94L32.06 4.31006L32.47 3.71002L32.13 3.16L31.69 3.80009C31.49 4.12992 31.3 4.47008 31.3 4.47008Z" fill="#FFB502" ></path><path d="M30.32 6.56997L30.81 6.91L31.09 6.23997C31.23 5.89994 31.39 5.57997 31.39 5.57997L30.95 5.15C30.95 5.15 30.77 5.49003 30.62 5.84995L30.32 6.56997Z" fill="#FFB502" ></path><path d="M29.47 8.70999L30 8.94C30 8.94 30.15 8.59003 30.28 8.24997C30.41 7.91007 30.55 7.57 30.55 7.57L30.04 7.29C30.04 7.29 29.8999 7.65003 29.75 8.01006L29.47 8.70999Z" fill="#FFB502" ></path><path d="M28.46 10.6501L28.94 10.98C28.94 10.98 29.16 10.6501 29.3499 10.32L29.7 9.63008L29.1799 9.38L28.8401 10.04C28.6701 10.3499 28.46 10.6501 28.46 10.6501Z" fill="#FFB502" ></path><path d="M26.96 12.11L27.26 12.61C27.7099 12.3373 28.1174 12.0005 28.47 11.6101L28.03 11.23C27.7197 11.5756 27.3589 11.8723 26.96 12.11Z" fill="#FFB502" ></path><path d="M24.96 12.77L25.0301 13.35L25.8101 13.23L26.56 12.98L26.34 12.44L25.6701 12.66L24.96 12.77Z" fill="#FFB502" ></path><path d="M22.7801 12.77L22.72 13.35L23.48 13.43L24.26 13.43L24.26 12.85L23.54 12.85L22.7801 12.77Z" fill="#FFB502" ></path><path d="M1.65 24.14L1.56998 23.57C1.04016 23.6464 0.51579 23.7566 0 23.9L0.180015 24.46C0.662805 24.3227 1.15384 24.2158 1.65 24.14Z" fill="#1B2044" ></path><path d="M3.89992 24.06L3.95 23.48C3.41768 23.435 2.88232 23.435 2.35 23.48L2.35 24.06C2.866 24.0231 3.38392 24.0231 3.89992 24.06Z" fill="#1B2044" ></path><path d="M6.03008 24.59L6.28 24.07C5.79952 23.8519 5.29648 23.6876 4.78 23.58L4.68 24.15C5.14432 24.2484 5.5968 24.396 6.03008 24.59Z" fill="#1B2044" ></path><path d="M7.71998 25.93L8.19 25.58C8.02002 25.362 7.83274 25.1581 7.63002 24.9699C7.43158 24.778 7.21371 24.6071 6.98008 24.46L6.66 24.94C6.86227 25.0737 7.0529 25.2243 7.22992 25.3901C7.41276 25.5515 7.57708 25.7324 7.71998 25.93Z" fill="#1B2044" ></path><path d="M8.64996 27.93L9.2 27.7501C9.06187 27.2318 8.87082 26.7291 8.62998 26.25L8.12 26.5301C8.33686 26.9805 8.5142 27.4488 8.64996 27.93Z" fill="#1B2044" ></path><path d="M9.22 30.24L9.73 29.9399C9.6994 29.8681 9.6727 29.7947 9.65 29.7199C9.65 29.58 9.58 29.4 9.53 29.2201L9.37 28.48L8.82 28.6799L9 29.47C9.05 29.6699 9.1 29.86 9.13 30.01C9.16 30.1599 9.22 30.24 9.22 30.24Z" fill="#1B2044" ></path><path d="M10.44 32.29L10.85 31.85C10.6698 31.6769 10.5119 31.4822 10.38 31.27C10.2367 31.0636 10.1096 30.8461 10 30.62L9.52 30.9801C9.63744 31.2209 9.77456 31.4517 9.93004 31.6699C10.0688 31.9006 10.2406 32.1095 10.44 32.29Z" fill="#1B2044" ></path><path d="M12.43 33.58L12.71 33.05C12.4726 32.9679 12.2419 32.8676 12.02 32.7499C11.7962 32.6359 11.585 32.4985 11.3899 32.34L11.02 32.82C11.2294 32.9841 11.4537 33.128 11.6899 33.25C11.9263 33.382 12.1739 33.4923 12.43 33.58Z" fill="#1B2044" ></path><path d="M14.78 34.02L14.9 33.44L14.15 33.38L13.42 33.25L13.19 33.81L13.98 33.95L14.78 34.02Z" fill="#1B2044" ></path><path d="M17.19 33.95L17.19 33.37L16.44 33.43C16.0599 33.43 15.6901 33.43 15.6901 33.43L15.63 34.02C15.63 34.02 16.03 34.02 16.43 34.02C16.83 34.02 17.19 33.95 17.19 33.95Z" fill="#1B2044" ></path><path d="M19.5 33.69L19.4399 33.11L17.89 33.29L17.96 33.87L19.5 33.69Z" fill="#1B2044" ></path><path d="M21.5801 33.95L21.86 33.44C21.612 33.2988 21.3464 33.1912 21.07 33.12C20.8729 33.075 20.672 33.0482 20.4699 33.04L20.22 33.04L20.22 33.62L20.4599 33.62C20.612 33.6281 20.7627 33.6516 20.9099 33.69C21.1446 33.7442 21.3703 33.8318 21.5801 33.95Z" fill="#1B2044" ></path><path d="M22.8901 35.54L23.44 35.34L23.33 35.1C23.2616 34.9195 23.1709 34.748 23.06 34.5899C22.9118 34.3486 22.7336 34.1269 22.5299 33.93L22.13 34.35C22.3002 34.5131 22.4482 34.6981 22.57 34.9C22.6996 35.1011 22.8069 35.3157 22.8901 35.54Z" fill="#1B2044" ></path><path d="M23.78 37.77C23.7863 37.6868 23.7863 37.6032 23.78 37.52C23.78 37.3701 23.78 37.17 23.78 36.97C23.7691 36.7819 23.7457 36.5949 23.71 36.41C23.71 36.26 23.71 36.16 23.71 36.16L23.14 36.2799C23.14 36.2799 23.14 36.3699 23.14 36.51C23.1728 36.6783 23.1929 36.8488 23.2 37.0201C23.2 37.2001 23.2 37.39 23.2 37.5299C23.2095 37.6096 23.2129 37.6898 23.21 37.77L23.78 37.77Z" fill="#1B2044" ></path><path d="M93.55 55.8895C93.4815 57.5294 92.1201 58.8084 90.4772 58.7709L20.5628 58.7709C18.9351 58.8084 17.5737 57.5528 17.49 55.9317L17.49 14.7677C17.5737 13.1466 18.9351 11.8816 20.5628 11.9191L90.4772 11.9191C92.1049 11.8816 93.4663 13.1466 93.55 14.7677L93.55 55.8895Z" fill="#252956" ></path><rect x="21.179999828338623" y="17.039999961853027" width="68.47" height="39.3" fill="#BDD0FB" ></rect><rect x="9.429999828338623" y="56.34000301361084" width="91.37" height="4.78" fill="#1B2044" ></rect><path d="M7.65004 36.96C7.65004 36.96 4.76991 35.9601 5.6499 35.03C6.52989 34.0999 7.66998 36.5101 7.65004 36.96Z" fill="#8A43EF" ></path><path d="M8.31996 38.15C8.31996 38.15 7.22997 35.3199 8.48996 35.3399C9.74995 35.3601 8.67996 37.8701 8.31996 38.15Z" fill="#8A43EF" ></path><path d="M8.49 38.3901C8.49 38.3901 6.30997 36.2801 5.85011 37.46C5.38999 38.64 8.09987 38.61 8.49 38.3901Z" fill="#8A43EF" ></path><path d="M9.23 39.96C9.23 39.96 7.04997 37.8499 6.59012 39.0401C6.12999 40.23 8.83987 40.1801 9.23 39.96Z" fill="#8A43EF" ></path><path d="M9.68 41.7701C9.68 41.7701 7.49987 39.6601 7.02988 40.84C6.55988 42.02 9.29005 41.99 9.68 41.7701Z" fill="#8A43EF" ></path><path d="M10.14 43.52C10.14 43.52 7.94999 41.41 7.48988 42.59C7.03005 43.77 9.78013 43.77 10.14 43.52Z" fill="#8A43EF" ></path><path d="M10.48 45.4401C10.48 45.4401 8.28999 43.3301 7.83004 44.51C7.3701 45.69 10.08 45.66 10.48 45.4401Z" fill="#8A43EF" ></path><path d="M10.58 47.0701C10.58 47.0701 8.39997 44.9601 7.94011 46.14C7.47999 47.32 10.1899 47.29 10.58 47.0701Z" fill="#8A43EF" ></path><path d="M10.78 48.87C10.78 48.87 8.60011 46.77 8.14007 47.94C7.68002 49.11 10.4201 49.0899 10.78 48.87Z" fill="#8A43EF" ></path><path d="M10.78 50.8501C10.78 50.8501 8.60011 48.7401 8.14007 49.92C7.68002 51.1 10.4201 51.07 10.78 50.8501Z" fill="#8A43EF" ></path><path d="M9.14998 39.85C9.14998 39.85 8.87994 36.85 10.09 37.2099C11.3 37.5701 9.56996 39.6799 9.14998 39.85Z" fill="#8A43EF" ></path><path d="M9.68 41.9C9.68 41.9 9.92997 38.8999 11.06 39.4601C12.1899 40.02 10.12 41.77 9.68 41.9Z" fill="#8A43EF" ></path><path d="M10.14 44.15C10.14 44.15 10.61 41.15 11.6901 41.8101C12.77 42.4699 10.5801 44.0901 10.14 44.15Z" fill="#8A43EF" ></path><path d="M10.48 46.27C10.48 46.27 10.94 43.27 12.0299 43.9301C13.12 44.5899 10.9201 46.2101 10.48 46.27Z" fill="#8A43EF" ></path><path d="M10.78 48.7C10.78 48.7 11.25 45.7 12.33 46.3601C13.4101 47.0199 11.26 48.6401 10.78 48.7Z" fill="#8A43EF" ></path><path d="M10.78 50.97C10.78 50.97 11.7801 48.1099 12.7301 48.97C13.6801 49.8301 11.26 50.9899 10.78 50.97Z" fill="#8A43EF" ></path><path d="M10.8599 54.77L10.6198 54.77C11.26 40.5501 7.39012 36.8997 7.35 36.8708L7.51012 36.69C7.67992 36.8401 11.5 40.4398 10.8599 54.77Z" fill="#8A43EF" ></path><path d="M3.3 43.08C3.3 43.08 0.889918 43.08 1.29992 42.08C1.70993 41.08 3.1999 42.77 3.3 43.08Z" fill="#8A43EF" ></path><path d="M4.10002 43.77C4.10002 43.77 2.57 41.9 3.53005 41.6101C4.49 41.3199 4.30004 43.51 4.10002 43.77Z" fill="#8A43EF" ></path><path d="M4.29 43.95C4.29 43.95 2.12007 42.89 2.06005 43.9C2.00003 44.91 4.04991 44.21 4.29 43.95Z" fill="#8A43EF" ></path><path d="M5.23 44.95C5.23 44.95 3.05995 43.9 3.00998 44.95C2.96001 46 4.98992 45.22 5.23 44.95Z" fill="#8A43EF" ></path><path d="M6.02 46.21C6.02 46.21 3.85007 45.21 3.79005 46.21C3.73003 47.21 5.77991 46.47 6.02 46.21Z" fill="#8A43EF" ></path><path d="M6.78 47.41C6.78 47.41 4.61007 46.41 4.55005 47.41C4.49003 48.41 6.53991 47.67 6.78 47.41Z" fill="#8A43EF" ></path><path d="M7.51 48.77C7.51 48.77 5.35001 47.77 5.29004 48.77C5.23006 49.77 7.2701 49.04 7.51 48.77Z" fill="#8A43EF" ></path><path d="M8 49.98C8 49.98 5.83008 48.98 5.77006 49.98C5.71004 50.98 7.78 50.24 8 49.98Z" fill="#8A43EF" ></path><path d="M8.62 51.29C8.62 51.29 6.45006 50.23 6.39004 51.29C6.33002 52.35 8.3701 51.55 8.62 51.29Z" fill="#8A43EF" ></path><path d="M9.1 52.77C9.1 52.77 6.92995 51.77 6.87998 52.77C6.83001 53.77 8.85992 53.04 9.1 52.77Z" fill="#8A43EF" ></path><path d="M5.13997 44.89C5.13997 44.89 4.18997 42.6799 5.19997 42.6601C6.20997 42.64 5.40997 44.6601 5.13997 44.89Z" fill="#8A43EF" ></path><path d="M6.05005 46.31C6.05005 46.31 5.49002 43.9601 6.48996 44.1201C7.49 44.2801 6.36004 46.13 6.05005 46.31Z" fill="#8A43EF" ></path><path d="M6.94998 47.89C6.94998 47.89 6.56003 45.51 7.53999 45.75C8.51995 45.9899 7.26998 47.7701 6.94998 47.89Z" fill="#8A43EF" ></path><path d="M7.72004 49.41C7.72004 49.41 7.32998 47.0201 8.32003 47.26C9.30998 47.5001 8.03997 49.2501 7.72004 49.41Z" fill="#8A43EF" ></path><path d="M8.57004 51.16C8.57004 51.16 8.19 48.7799 9.17005 49.0099C10.15 49.2399 8.90001 51 8.57004 51.16Z" fill="#8A43EF" ></path><path d="M9.13 52.87C9.13 52.87 9.13 50.4599 10.13 50.8699C11.13 51.2799 9.47994 52.7699 9.13 52.87Z" fill="#8A43EF" ></path><path d="M10.11 55.7698L9.92009 55.82C6.92029 44.9397 3.09024 43.1405 3.05 43.1199L3.12978 42.95C3.29004 42.9796 7.06008 44.7698 10.11 55.7698Z" fill="#8A43EF" ></path><path d="M16.66 39.92C16.66 39.92 18.7201 39.92 18.3799 39.1C18.0399 38.28 16.7801 39.62 16.66 39.92Z" fill="#8A43EF" ></path><path d="M15.98 40.54C15.98 40.54 17.28 38.95 16.46 38.7001C15.64 38.45 15.78 40.2801 15.98 40.54Z" fill="#8A43EF" ></path><path d="M15.78 40.66C15.78 40.66 17.6199 39.76 17.68 40.66C17.7399 41.56 16.02 40.88 15.78 40.66Z" fill="#8A43EF" ></path><path d="M15.01 41.52C15.01 41.52 16.8599 40.62 16.9099 41.52C16.9599 42.42 15.2201 41.77 15.01 41.52Z" fill="#8A43EF" ></path><path d="M14.34 42.59C14.34 42.59 16.1899 41.69 16.2399 42.59C16.2899 43.49 14.5501 42.82 14.34 42.59Z" fill="#8A43EF" ></path><path d="M13.68 43.62C13.68 43.62 15.5299 42.72 15.5799 43.62C15.6299 44.52 13.8901 43.84 13.68 43.62Z" fill="#8A43EF" ></path><path d="M13.06 44.77C13.06 44.77 14.9099 43.87 14.9599 44.77C15.0099 45.67 13.26 45.01 13.06 44.77Z" fill="#8A43EF" ></path><path d="M12.64 45.77C12.64 45.77 14.49 44.87 14.55 45.77C14.61 46.67 12.8501 46.04 12.64 45.77Z" fill="#8A43EF" ></path><path d="M12.12 46.93C12.12 46.93 13.9699 46.03 14.0199 46.93C14.0699 47.83 12.32 47.15 12.12 46.93Z" fill="#8A43EF" ></path><path d="M11.7 48.2C11.7 48.2 13.5499 47.3 13.5999 48.2C13.6499 49.1 11.9101 48.42 11.7 48.2Z" fill="#8A43EF" ></path><path d="M15.09 41.46C15.09 41.46 15.9 39.57 15.04 39.56C14.18 39.5501 14.85 41.27 15.09 41.46Z" fill="#8A43EF" ></path><path d="M14.3099 42.67C14.3099 42.67 14.7899 40.67 13.9299 40.8101C13.07 40.9499 14.0499 42.5201 14.3099 42.67Z" fill="#8A43EF" ></path><path d="M13.54 44.03C13.54 44.03 13.87 42.03 13.04 42.1899C12.21 42.3501 13.27 43.89 13.54 44.03Z" fill="#8A43EF" ></path><path d="M12.88 45.32C12.88 45.32 13.21 43.32 12.38 43.4901C11.55 43.6601 12.6 45.1901 12.88 45.32Z" fill="#8A43EF" ></path><path d="M12.15 46.82C12.15 46.82 12.48 44.82 11.65 44.9901C10.82 45.1601 11.88 46.68 12.15 46.82Z" fill="#8A43EF" ></path><path d="M11.67 48.28C11.67 48.28 11.67 46.22 10.84 46.57C10.01 46.92 11.38 48.2 11.67 48.28Z" fill="#8A43EF" ></path><path d="M10.84 50.77L10.9998 50.77C13.58 41.4695 16.87 39.9196 16.87 39.9196L16.7802 39.77C16.6698 39.8305 13.4401 41.3496 10.84 50.77Z" fill="#8A43EF" ></path><path d="M16.49 44.84C16.49 44.84 18.9001 44.84 18.4901 43.89C18.0801 42.94 16.5901 44.5001 16.49 44.84Z" fill="#AA60FF" ></path><path d="M15.69 45.57C15.69 45.57 17.22 43.71 16.25 43.42C15.28 43.1301 15.49 45.27 15.69 45.57Z" fill="#AA60FF" ></path><path d="M15.5 45.71C15.5 45.71 17.67 44.71 17.73 45.71C17.79 46.71 15.78 45.97 15.5 45.71Z" fill="#AA60FF" ></path><path d="M14.56 46.77C14.56 46.77 16.73 45.77 16.78 46.77C16.83 47.77 14.7801 46.98 14.56 46.77Z" fill="#AA60FF" ></path><path d="M13.78 47.97C13.78 47.97 15.9499 46.97 16.01 47.97C16.07 48.97 14.0201 48.24 13.78 47.97Z" fill="#AA60FF" ></path><path d="M13.01 49.18C13.01 49.18 15.17 48.12 15.23 49.18C15.2899 50.24 13.2399 49.44 13.01 49.18Z" fill="#AA60FF" ></path><path d="M12.28 50.54C12.28 50.54 14.44 49.54 14.5 50.54C14.5599 51.54 12.5199 50.77 12.28 50.54Z" fill="#AA60FF" ></path><path d="M11.78 51.77C11.78 51.77 13.9499 50.77 14.01 51.77C14.07 52.77 12.0299 52.01 11.78 51.77Z" fill="#AA60FF" ></path><path d="M11.17 53.05C11.17 53.05 13.3399 52.05 13.4 53.05C13.46 54.05 11.4199 53.31 11.17 53.05Z" fill="#AA60FF" ></path><path d="M10.69 54.54C10.69 54.54 12.85 53.48 12.91 54.54C12.9699 55.6 10.9299 54.77 10.69 54.54Z" fill="#AA60FF" ></path><path d="M14.65 46.65C14.65 46.65 15.65 44.44 14.59 44.43C13.53 44.42 14.38 46.42 14.65 46.65Z" fill="#AA60FF" ></path><path d="M13.78 48.07C13.78 48.07 14.34 45.7201 13.35 45.89C12.36 46.06 13.43 47.8901 13.78 48.07Z" fill="#AA60FF" ></path><path d="M12.85 49.65C12.85 49.65 13.23 47.28 12.2499 47.51C11.27 47.74 12.52 49.5 12.85 49.65Z" fill="#AA60FF" ></path><path d="M12.07 51.17C12.07 51.17 12.46 48.7899 11.48 49.0199C10.5 49.2499 11.78 51.01 12.07 51.17Z" fill="#AA60FF" ></path><path d="M11.22 52.92C11.22 52.92 11.6 50.54 10.62 50.78C9.63996 51.0199 10.9 52.7701 11.22 52.92Z" fill="#AA60FF" ></path><path d="M10.66 54.63C10.66 54.63 10.6101 52.23 9.65994 52.63C8.70995 53.03 10.31 54.54 10.66 54.63Z" fill="#AA60FF" ></path><path d="M9.68 57.5L9.86991 57.5C12.8697 46.61 16.6998 44.8106 16.74 44.8003L16.6602 44.62C16.5 44.7694 12.78 46.5198 9.68 57.5Z" fill="#AA60FF" ></path><path d="M4.86 47.99C4.86 47.99 3.40005 47.99 3.64003 47.41C3.88001 46.83 4.77996 47.77 4.86 47.99Z" fill="#AA60FF" ></path><path d="M5.35 48.43C5.35 48.43 4.42 47.3 5.01 47.12C5.6 46.94 5.47 48.2499 5.35 48.43Z" fill="#AA60FF" ></path><path d="M5.46 48.52C5.46 48.52 4.14999 47.88 4.11001 48.52C4.07002 49.16 5.32004 48.68 5.46 48.52Z" fill="#AA60FF" ></path><path d="M6.04 49.14C6.04 49.14 4.72003 48.49 4.68002 49.14C4.64001 49.79 5.89996 49.3 6.04 49.14Z" fill="#AA60FF" ></path><path d="M6.52 49.9C6.52 49.9 5.20003 49.26 5.16001 49.9C5.12 50.54 6.37002 50.06 6.52 49.9Z" fill="#AA60FF" ></path><path d="M6.99 50.63C6.99 50.63 5.67002 49.99 5.63001 50.63C5.59 51.27 6.84002 50.77 6.99 50.63Z" fill="#AA60FF" ></path><path d="M7.43 51.46C7.43 51.46 6.11002 50.82 6.07001 51.46C6.03 52.1 7.28002 51.62 7.43 51.46Z" fill="#AA60FF" ></path><path d="M7.78 52.2C7.78 52.2 6.45999 51.56 6.41998 52.2C6.37996 52.84 7.57994 52.36 7.78 52.2Z" fill="#AA60FF" ></path><path d="M8.1 52.99C8.1 52.99 6.77999 52.35 6.75 52.99C6.72002 53.63 7.95995 53.15 8.1 52.99Z" fill="#AA60FF" ></path><path d="M8.4 53.9C8.4 53.9 7.08002 53.26 7.04001 53.9C7 54.54 8.25002 54.06 8.4 53.9Z" fill="#AA60FF" ></path><path d="M5.98998 49.1C5.98998 49.1 5.40998 47.75 5.98998 47.7399C6.56998 47.73 6.14998 48.95 5.98998 49.1Z" fill="#AA60FF" ></path><path d="M6.54002 49.96C6.54002 49.96 6.20002 48.5299 6.81002 48.6301C7.42002 48.7301 6.78002 49.85 6.54002 49.96Z" fill="#AA60FF" ></path><path d="M7.08998 50.92C7.08998 50.92 6.84998 49.48 7.44998 49.62C8.04998 49.76 7.27998 50.83 7.08998 50.92Z" fill="#AA60FF" ></path><path d="M7.56004 51.85C7.56004 51.85 7.32004 50.4 7.92004 50.54C8.52004 50.68 7.78004 51.77 7.56004 51.85Z" fill="#AA60FF" ></path><path d="M8.07998 52.92C8.07998 52.92 7.83998 51.47 8.43998 51.61C9.03998 51.75 8.26998 52.82 8.07998 52.92Z" fill="#AA60FF" ></path><path d="M8.41999 53.96C8.41999 53.96 8.41999 52.49 9.00999 52.74C9.59999 52.9899 8.62999 53.8999 8.41999 53.96Z" fill="#AA60FF" ></path><path d="M9.01 55.7L8.89992 55.7C7.05995 49.0697 4.7401 47.98 4.71 47.9604L4.75988 47.86C4.86007 47.9298 7.16014 49.0101 9.01 55.7Z" fill="#AA60FF" ></path><path d="M15.34 49.15C15.34 49.15 16.98 49.15 16.7101 48.51C16.44 47.87 15.41 48.92 15.34 49.15Z" fill="#8A43EF" ></path><path d="M14.78 49.64C14.78 49.64 15.78 48.3799 15.15 48.1899C14.52 47.9999 14.67 49.44 14.78 49.64Z" fill="#8A43EF" ></path><path d="M14.68 49.77C14.68 49.77 16.14 49.06 16.18 49.77C16.22 50.48 14.84 49.92 14.68 49.77Z" fill="#8A43EF" ></path><path d="M14.04 50.42C14.04 50.42 15.5 49.71 15.54 50.42C15.58 51.13 14.2 50.6 14.04 50.42Z" fill="#8A43EF" ></path><path d="M13.51 51.27C13.51 51.27 14.97 50.56 15.01 51.27C15.05 51.98 13.67 51.45 13.51 51.27Z" fill="#8A43EF" ></path><path d="M12.99 52.08C12.99 52.08 14.45 51.37 14.49 52.08C14.53 52.79 13.15 52.26 12.99 52.08Z" fill="#8A43EF" ></path><path d="M12.49 53.01C12.49 53.01 13.9601 52.29 13.9999 53.01C14.04 53.73 12.66 53.18 12.49 53.01Z" fill="#8A43EF" ></path><path d="M12.17 53.82C12.17 53.82 13.63 53.11 13.67 53.82C13.71 54.53 12.33 54 12.17 53.82Z" fill="#8A43EF" ></path><path d="M11.78 54.7C11.78 54.7 13.25 53.99 13.28 54.7C13.31 55.41 11.9099 54.88 11.78 54.7Z" fill="#8A43EF" ></path><path d="M11.42 55.71C11.42 55.71 12.8901 55 12.9299 55.71C12.97 56.42 11.58 55.89 11.42 55.71Z" fill="#8A43EF" ></path><path d="M14.1 50.38C14.1 50.38 14.7401 48.8801 14.1 48.8699C13.4601 48.86 13.9101 50.2199 14.1 50.38Z" fill="#8A43EF" ></path><path d="M13.49 51.34C13.49 51.34 13.86 49.75 13.19 49.86C12.52 49.97 13.28 51.21 13.49 51.34Z" fill="#8A43EF" ></path><path d="M12.88 52.41C12.88 52.41 13.14 50.8001 12.48 50.9601C11.82 51.1201 12.66 52.3 12.88 52.41Z" fill="#8A43EF" ></path><path d="M12.36 53.43C12.36 53.43 12.62 51.8201 11.95 51.9801C11.28 52.1401 12.14 53.3301 12.36 53.43Z" fill="#8A43EF" ></path><path d="M11.78 54.62C11.78 54.62 12.04 53.0101 11.38 53.1701C10.72 53.3301 11.56 54.51 11.78 54.62Z" fill="#8A43EF" ></path><path d="M11.4 55.77C11.4 55.77 11.4 54.1399 10.74 54.42C10.08 54.7001 11.17 55.71 11.4 55.77Z" fill="#8A43EF" ></path><path d="M10.78 57.71L10.9102 57.71C12.9098 50.3399 15.53 49.1304 15.55 49.1199L15.55 48.99C15.3501 49.0903 12.7801 50.2902 10.78 57.71Z" fill="#8A43EF" ></path><path d="M12.7 53.5C12.6672 53.9102 12.8888 54.2986 13.2586 54.4788C13.6284 54.6592 14.071 54.5944 14.3738 54.316C14.6766 54.0374 14.7778 53.6018 14.629 53.2182C14.48 52.8346 14.1114 52.5814 13.7 52.58C13.1776 52.5784 12.7418 52.9792 12.7 53.5Z" fill="#663006" ></path><path d="M9.78011 53.9C9.70171 54.7216 10.1361 55.5073 10.8737 55.8775C11.6114 56.2477 12.501 56.1268 13.113 55.5729C13.725 55.019 13.9338 54.1461 13.6386 53.3753C13.3438 52.604 12.6054 52.0937 11.7802 52.0901C10.7285 52.0389 9.83372 52.8486 9.78011 53.9Z" fill="#663006" ></path><path d="M8.78 53.5C8.88374 53.955 9.28837 54.2778 9.755 54.2778C10.2216 54.2778 10.6263 53.955 10.73 53.5C10.6263 53.045 10.2216 52.7222 9.755 52.7222C9.28837 52.7222 8.88374 53.045 8.78 53.5Z" fill="#663006" ></path><path d="M7.97995 53.34C7.95107 53.6531 8.11782 53.9516 8.39963 54.0911C8.68145 54.2305 9.01996 54.1821 9.25131 53.9693C9.48267 53.7564 9.55912 53.423 9.4436 53.1306C9.32808 52.8382 9.04444 52.6472 8.72994 52.65C8.53902 52.6419 8.35266 52.71 8.21191 52.8394C8.0713 52.969 7.98785 53.149 7.97995 53.34Z" fill="#663006" ></path><path d="M6.92007 53.54C6.88275 53.8937 7.06714 54.2337 7.3838 54.3957C7.70029 54.5576 8.08404 54.5079 8.34893 54.2707C8.61382 54.0334 8.70549 53.6577 8.57941 53.3252C8.45333 52.9927 8.13564 52.772 7.77993 52.77C7.33065 52.7472 6.94691 53.0908 6.92007 53.54Z" fill="#663006" ></path><path d="M13.4402 61.16L8.22982 61.16L7.7 54.22L13.97 54.22L13.4402 61.16Z" fill="#E5649A" ></path><path d="M14.3898 55.36L7.26988 55.36L6.55 53.08L15.12 53.08L14.3898 55.36Z" fill="#D34F8B" ></path><path d="M13.7099 17.1298C14.0022 17.4368 14.1574 17.85 14.1405 18.2746C14.1235 18.6975 13.9358 19.0976 13.6201 19.3801L12.6199 20.2799C12.4075 20.4775 12.2787 20.7502 12.26 21.0392C12.2491 21.3315 12.3533 21.6157 12.5499 21.8296L13.6399 23.0299C14.2151 23.6749 14.1707 24.6596 13.5399 25.2507L12.0501 26.58L11.72 26.2207L13.22 24.8507C13.6605 24.4375 13.6915 23.75 13.29 23.2993L12.1901 22.1007C11.6164 21.4491 11.665 20.4611 12.3 19.87L13.2999 18.9702C13.5203 18.7726 13.6503 18.495 13.66 18.1994C13.6738 17.9071 13.5651 17.6197 13.36 17.4107L12.3601 16.4097C12.0644 16.0896 11.913 15.6618 11.9416 15.2274C11.9699 14.793 12.1753 14.3897 12.51 14.1104L13.19 13.5503C13.4406 13.3494 13.5905 13.0506 13.6 12.7305C13.6014 12.4072 13.4672 12.0986 13.2299 11.8797L11.8101 10.6093L12.13 10.25L13.5501 11.5303C13.8901 11.8389 14.0797 12.2798 14.07 12.7403C14.0613 13.1992 13.8489 13.6319 13.49 13.9193L12.8199 14.4795C12.5826 14.6738 12.4344 14.9547 12.4099 15.26C12.3925 15.5638 12.5012 15.8594 12.71 16.0798L13.7099 17.1298Z" fill="#8A43EF" ></path><path d="M13.58 4.48998C14.2314 4.75864 14.66 5.39527 14.66 6.09998C14.66 7.05699 13.887 7.83998 12.93 7.83998C12.2252 7.83998 11.5924 7.42005 11.32 6.76998C11.0475 6.12025 11.1933 5.36971 11.69 4.86998C12.1869 4.37024 12.9285 4.22132 13.58 4.48998ZM12.93 7.35998C12.2342 7.35998 11.67 6.79575 11.67 6.09998C11.67 5.4042 12.2342 4.83998 12.93 4.83998C13.6235 4.83998 14.19 5.40647 14.19 6.09998C14.19 6.79575 13.6257 7.35998 12.93 7.35998Z" fill-rule="evenodd" fill="#FFB502" ></path><rect x="25.719998836517334" y="20.069998741149902" width="51.72" height="34.04" rx="2.16" fill="#A6BFED" ></rect><path d="M75.2884 20.08L27.8819 20.08C26.6923 20.08 25.7252 21.0412 25.72 22.23L25.72 26.23L77.44 26.23L77.44 22.23C77.44 21.0425 76.478 20.08 75.2884 20.08Z" fill="#DBE7FC" ></path><path d="M30.96 23.18C30.9641 23.6185 30.7024 24.0162 30.298 24.1857C29.8934 24.3555 29.4264 24.2637 29.1165 23.9535C28.8063 23.6436 28.7145 23.1766 28.8843 22.772C29.0538 22.3676 29.4515 22.1059 29.89 22.11C30.481 22.11 30.96 22.5891 30.96 23.18Z" fill="#F5F9FC" ></path><path d="M33.67 23.1801C33.6742 23.6177 33.4134 24.0145 33.0104 24.1849C32.6071 24.3551 32.141 24.2653 31.8299 23.9573C31.5189 23.6492 31.4247 23.1839 31.5912 22.7791C31.7578 22.3743 32.1522 22.11 32.59 22.11C32.8756 22.1074 33.1503 22.2188 33.3532 22.4199C33.556 22.6208 33.67 22.8945 33.67 23.1801Z" fill="#F5F9FC" ></path><path d="M36.28 23.18C36.28 23.7709 35.8009 24.25 35.21 24.25C34.6191 24.25 34.14 23.7709 34.14 23.18C34.14 22.5891 34.6191 22.11 35.21 22.11C35.8009 22.11 36.28 22.5891 36.28 23.18Z" fill="#F5F9FC" ></path><rect x="33.83000326156616" y="46.669997215270996" width="17.33" height="4.38" fill="#BDD0FB" ></rect><rect x="53.44000005722046" y="46.669997215270996" width="17.32" height="4.38" fill="#BDD0FB" ></rect><rect x="29.590001583099365" y="28.569998741149902" width="45.65" height="15.84" fill="#BDD0FB" ></rect><rect x="48.41999959945679" y="7.999999046325684" width="48.34" height="48.34" fill="#E5649A" ></rect><rect x="48.41999959945679" y="7.999999046325684" width="48.34" height="4.57" fill="#D34F8B" ></rect><path d="M52.3299 10.45C52.2656 10.9497 51.8188 11.3099 51.3169 11.2665C50.8147 11.2232 50.4363 10.7918 50.4586 10.2883C50.4809 9.785 50.8961 9.38868 51.4001 9.39C51.9487 9.42741 52.3642 9.901 52.3299 10.45Z" fill="#F5F9FC" ></path><path d="M55.1099 10.45C55.0456 10.9497 54.5988 11.3099 54.0969 11.2665C53.5947 11.2232 53.2163 10.7918 53.2386 10.2883C53.2609 9.785 53.6761 9.38868 54.1801 9.39C54.7287 9.42741 55.1442 9.901 55.1099 10.45Z" fill="#F5F9FC" ></path><path d="M57.8899 10.45C57.8206 10.9407 57.3789 11.2909 56.8853 11.2461C56.3917 11.2015 56.02 10.7778 56.0399 10.2826C56.0599 9.78748 56.4645 9.39484 56.96 9.39C57.5088 9.42739 57.9242 9.90094 57.8899 10.45Z" fill="#F5F9FC" ></path><rect x="50.4700026512146" y="16.569998741149902" width="43.82" height="8.08" fill="#FF95A9" ></rect><rect x="50.4700026512146" y="44.49000072479248" width="43.82" height="8.08" fill="#FF95A9" ></rect><rect x="50.4700026512146" y="26.030001640319824" width="20.96" height="7.15" fill="#FF95A9" ></rect><rect x="50.4700026512146" y="34.429999351501465" width="20.96" height="7.16" fill="#FF95A9" ></rect><rect x="74.87999868392944" y="26.030001640319824" width="19.41" height="15.56" fill="#FCE2C0" ></rect><rect x="46.21000051498413" y="47.5699987411499" width="0.89" height="13.01" fill="#585BEA" ></rect><path d="M51.9095 34.77L44.4597 34.77C43.893 34.7777 43.3531 35.0108 42.959 35.4182C42.5648 35.8255 42.3491 36.3738 42.3596 36.94L42.3596 47.58L54.02 47.58L54.02 36.9106C54.02 35.7397 53.0802 34.7867 51.9095 34.77Z" fill="#585BEA" ></path><path d="M54.0201 47.7701C54.0218 47.9795 53.9418 48.1816 53.7959 48.3315C53.65 48.4816 53.449 48.5673 53.2409 48.57L37.0091 48.57C36.801 48.5673 36.6 48.4816 36.4541 48.3315C36.3082 48.1816 36.2282 47.9795 36.2299 47.7701C36.2299 47.3376 36.5768 46.9854 37.0091 46.98L53.2409 46.98C53.6732 46.9854 54.0201 47.3376 54.0201 47.7701Z" fill="#4850D8" ></path><rect x="41.36000204086304" y="60.15000057220459" width="10.25" height="1.01" fill="#585BEA" ></rect><path d="M40.5102 50.2097C41.7799 51.8602 43.9798 53.7701 44.6501 55.0204C44.7603 55.2201 44.7603 55.2996 44.1602 55.7603C43.5601 56.2201 44.3701 56.3502 45.5502 55.8796C46.7303 55.4098 43.77 50.2404 42.11 47.8798C40.6599 45.9103 39.0301 48.2899 40.5102 50.2097Z" fill="#F9B5A0" ></path><path d="M45.83 55.14C45.3877 55.5762 44.7797 55.8019 44.1601 55.76C44.1601 55.76 43.06 56.37 43.9099 56.39C44.7599 56.41 46.29 56.13 45.83 55.14Z" fill="#AA60FF" ></path><path d="M45.7796 39.66C45.7796 39.66 37.5 42.7696 37.3399 45.18C37.2005 47.3597 42.7801 53.5594 42.7801 53.5594C43.7005 53.5803 44.5866 53.2189 45.2295 52.56C45.2295 52.56 42.07 48.6399 42.7801 47.3903C43.6003 45.8904 49.56 46.5103 49.56 46.5103L47.1497 43.0407L45.7796 39.66Z" fill="#FFB502" ></path><path d="M46.4402 51.5998C47.8198 53.1699 50.13 54.9599 50.8702 56.15C50.99 56.3303 51.0001 56.42 50.4301 56.91C49.8601 57.3999 50.6798 57.4896 51.8198 56.91C52.9598 56.3303 49.7 51.4001 47.8998 49.2002C46.3197 47.3003 44.8399 49.7702 46.4402 51.5998Z" fill="#F9B5A0" ></path><path d="M52.0601 56.18C52.0601 56.18 51.2499 57.0599 50.4299 56.91C50.4299 56.91 49.37 57.59 50.22 57.5501C51.0701 57.51 52.5801 57.1401 52.0601 56.18Z" fill="#AA60FF" ></path><path d="M48.24 40.94C48.24 40.94 42.9697 44.3602 42.95 46.7693C42.95 48.9503 48.8804 54.77 48.8804 54.77C49.8016 54.7271 50.6661 54.3081 51.2696 53.6097C51.2696 53.6097 47.9799 49.5506 48.41 48.05C48.7199 47.0501 51.1099 46.49 51.4104 44.8802C52.1203 41.0797 49.5698 41.8804 49.5698 41.8804L48.24 40.94Z" fill="#FFCF03" ></path><path d="M50.3 54.46C50.1401 54.2804 46.5299 50.1796 46.7102 47.5794C46.8901 45.2101 50.1699 42.9003 50.31 42.8L50.3999 42.9294C50.3999 42.9294 47.0499 45.2999 46.88 47.6004C46.7001 50.1201 50.3799 54.3003 50.42 54.3504L50.3 54.46Z" fill="#FFFFFF" ></path><path d="M44.71 40.77C44.71 40.77 48.5801 43.4299 51.3998 42.3299C51.5369 42.7968 51.5883 43.2849 51.5499 43.7701C51.5499 43.7701 46.6499 43.9601 44.71 40.77Z" fill="#1D1B3A" ></path><path d="M45.1002 32.3799C45.1002 32.3799 46.82 32.6603 46.48 35.2403C46.3667 36.4923 46.0839 37.7233 45.6399 38.9002C44.2346 38.9978 42.8343 38.6475 41.64 37.9001C41.64 37.9001 42.72 31.6397 45.1002 32.3799Z" fill="#8A43EF" ></path><path d="M51.7201 41.7005C51.6904 41.6491 51.65 41.5405 51.65 41.5405C50.8602 39.3397 50.2699 37.9602 50.8 35.6497C51.57 32.3401 49.0597 32.1398 47.5296 31.9798C46.0004 31.8198 43.5297 32.0402 43.0301 34.7199C42.659 36.8805 42.916 39.1014 43.7704 41.1198C44.7803 43.2099 52.9698 44.0804 51.7201 41.7005Z" fill="#AA60FF" ></path><path d="M45.9199 30.37C45.9199 30.37 45.9199 31.7 46.92 31.9202C47.9201 32.1399 45.71 35.2202 45.4901 34.5498C45.1901 33.6798 45.3801 32.9898 44.49 32.24L45.9199 30.37Z" fill="#F7B2A0" ></path><path d="M43.2 29.1299C42.8199 30.1298 43.4498 33.38 44.4898 33.67C44.9399 33.7898 46.1099 32.85 46.3299 31.1798C46.5039 30.1948 46.1191 29.1943 45.3299 28.5799C44.9852 28.3313 44.5476 28.2491 44.136 28.3554C43.7243 28.4618 43.3812 28.7453 43.2 29.1299Z" fill="#FBC6B4" ></path><path d="M42.65 29.8201C42.65 30.2602 42.7602 30.3202 43.9299 29.9701C45.1 29.62 45.2599 29.4498 45.2698 29.7602C45.2698 30.68 46.0199 30.1601 46.0601 31.2699C46.0999 32.3801 46.7398 31.3801 46.7899 30.4401C46.8231 29.6459 46.4453 28.8902 45.7901 28.4401C45.2288 27.9858 44.4609 27.8831 43.7998 28.1736C43.1388 28.4641 42.6951 29.0994 42.65 29.8201Z" fill="#1D1B3A" ></path><path d="M50.8598 33.8999C50.7301 33.5597 49.8598 33.2402 48.8598 33.4499C47.53 33.7303 49.8598 39.0796 48.1001 38.4502C46.3397 37.8199 45.4898 34.4498 45.2002 33.6303C44.9098 32.8098 45.2002 32.3697 44.9697 31.9099C44.74 31.4502 44.2298 31.7404 44.37 33.15C44.4398 33.8205 46.7597 41.59 48.9697 41.5096C51.9902 41.4596 51.6202 35.88 50.8598 33.8999Z" fill="#F7B2A0" ></path><path d="M49.52 32.4602C49.52 32.4602 51.0601 32.2299 51.5199 34.46C51.7587 35.5695 51.8458 36.7069 51.7798 37.8397C50.6079 38.3011 49.3204 38.3817 48.1001 38.0701C48.1001 38.0701 47.3101 32.48 49.52 32.4602Z" fill="#8A43EF" ></path><path d="M41.78 37.94C41.5533 38.4773 41.4443 39.057 41.4601 39.64C41.5999 40.16 43.71 39.72 43.71 39.72C43.4214 39.3618 43.1978 38.9556 43.0501 38.5201C42.96 38.11 41.78 37.94 41.78 37.94Z" fill="#FBC6B4" ></path><path d="M43.6601 39.7699C45.2497 40.9701 46.2201 40.44 46.7999 40.7099C47.3802 40.98 47.0403 40.7099 47.3702 40.9701C47.7002 41.23 47.96 41.4699 47.0102 41.39C46.5501 41.39 41.6398 42.0701 41.41 39.69C41.41 39.6401 43.21 39.38 43.6601 39.7699Z" fill="#FBC6B4" ></path><rect x="25.629998683929443" y="30.97000026702881" width="5.22" height="1.34" fill="#E6E4F7" ></rect><rect x="30.84999990463257" y="30.97000026702881" width="1.11" height="1.34" fill="#BFBEED" ></rect><path d="M27.87 31.04L30.85 31.37L30.85 30.97L27.87 31.04Z" fill="#BFBEED" ></path><rect x="24.719998836517334" y="32.3100004196167" width="7.04" height="1.02" fill="#E6E4F7" ></rect><rect x="30.219998836517334" y="32.3100004196167" width="1.54" height="1.02" fill="#BFBEED" ></rect><path d="M30.22 32.31L28.57 32.31L30.22 32.56L30.22 32.31Z" fill="#BFBEED" ></path><path d="M24.72 32.71L28.17 32.81L24.72 32.81L24.72 32.71Z" fill="#D2CDF9" ></path><rect x="25.999999523162842" y="33.19999980926514" width="5.22" height="1.6" fill="#F2F2FC" ></rect><rect x="31.219998836517334" y="33.19999980926514" width="1.11" height="1.6" fill="#BFBEED" ></rect><path d="M26 34L28.61 34L26 34.27L26 34Z" fill="#D2CDF9" ></path><rect x="26.059998989105225" y="34.24000072479248" width="7.06" height="4.44" fill="#D34F8B" ></rect><rect x="25.749999523162842" y="34.09999752044678" width="7.7" height="0.56" fill="#E5649A" ></rect><rect x="24.97999906539917" y="34.24000072479248" width="7.06" height="4.44" fill="#E5649A" ></rect><rect x="24.679999828338623" y="34.09999752044678" width="7.7" height="0.56" fill="#D34F8B" ></rect><path d="M26.04 35.29C26.04 35.36 26.1099 35.41 26.1998 35.41L30.4202 35.41C30.5101 35.41 30.58 35.41 30.58 35.29C30.58 35.22 30.5101 35.17 30.4202 35.17L26.1998 35.17C26.1099 35.17 26.04 35.17 26.04 35.29Z" fill="#D34F8B" ></path><path d="M26.19 35.29C26.19 35.22 26.2598 35.17 26.3498 35.17L30.4202 35.17C30.5102 35.17 30.58 35.17 30.58 35.29C30.58 35.41 30.5102 35.41 30.4202 35.41L26.3498 35.41C26.2598 35.41 26.19 35.36 26.19 35.29Z" fill="#FF95A9" ></path><rect x="26.059998989105225" y="34.65999889373779" width="7.06" height="0.21" fill="#EF849D" ></rect><rect x="24.97999906539917" y="34.65999889373779" width="7.06" height="0.21" fill="#FF95A9" ></rect><rect x="24.04999876022339" y="37.22999858856201" width="6.39" height="4.13" fill="#AA60FF" ></rect><rect x="29.110002040863037" y="37.22999858856201" width="5.04" height="4.13" fill="#8A43EF" ></rect><path d="M34.1303 37.23L34.86 35.78L29.87 35.78L29.15 37.23L34.1303 37.23Z" fill="#AA60FF" ></path><path d="M29.11 37.23L28.7502 38.59L24.05 38.59L24.05 37.23L29.11 37.23Z" fill="#8A43EF" ></path><path d="M24.05 37.23L22.75 38.26L28.0498 38.26L29.11 37.23L24.05 37.23Z" fill="#AA60FF" ></path><path d="M33.548 39.0079C33.5721 39.0286 33.5874 39.0581 33.59 39.09C33.5874 39.1219 33.5721 39.1514 33.548 39.1721C33.5234 39.1927 33.4602 39.2 33.4602 39.2L29.9902 39.2C29.9593 39.2028 29.9284 39.1925 29.9057 39.1715C29.8826 39.1506 29.87 39.121 29.87 39.09C29.87 39.059 29.8826 39.0294 29.9057 39.0085C29.9284 38.9875 29.9593 38.9772 29.9902 38.98L33.4602 38.98C33.4602 38.98 33.5234 38.9873 33.548 39.0079Z" fill="#7371CC" ></path><path d="M33.47 39.09C33.4675 39.0581 33.4524 39.0286 33.428 39.0079C33.4036 38.9873 33.372 38.9772 33.34 38.98L29.9899 38.98C29.9292 38.98 29.88 39.0292 29.88 39.09C29.88 39.1508 29.9292 39.2 29.9899 39.2L33.34 39.2C33.372 39.2028 33.4036 39.1927 33.428 39.1721C33.4524 39.1514 33.4675 39.1219 33.47 39.09Z" fill="#B4A4F5" ></path><path d="M33.59 39.52C33.5848 39.5879 33.5283 39.6402 33.4602 39.64L29.9902 39.64C29.9236 39.64 29.87 39.5863 29.87 39.52C29.87 39.489 29.8826 39.4594 29.9057 39.4385C29.9284 39.4175 29.9593 39.4072 29.9902 39.41L33.4602 39.41C33.4918 39.4073 33.5234 39.4173 33.548 39.438C33.5721 39.4586 33.5874 39.4882 33.59 39.52Z" fill="#7371CC" ></path><path d="M33.47 39.52C33.4675 39.4882 33.4524 39.4586 33.4279 39.438C33.4034 39.4173 33.3717 39.4073 33.34 39.41L29.9899 39.41C29.9593 39.4072 29.9287 39.4175 29.9056 39.4385C29.883 39.4594 29.87 39.489 29.87 39.52C29.87 39.5863 29.9236 39.64 29.9899 39.64L33.34 39.64C33.4081 39.6402 33.4646 39.5879 33.47 39.52Z" fill="#B4A4F5" ></path><rect x="33.96000051498413" y="40.18999767303467" width="13.69" height="0.81" fill="#1D1B3A" ></rect><path d="M42.32 41L32.5702 41L31.13 33.92L40.3897 33.92L42.32 41Z" fill="#1D1B3A" ></path><rect x="22.509999752044678" y="40.86999797821045" width="35.29" height="1.33" fill="#4850D8" ></rect><path d="M22.9699 61.11L21.64 61.11L26.5801 41L27.91 41.3197L22.9699 61.11Z" fill="#4850D8" ></path><path d="M58.32 61.11L56.8801 61.11L52.19 41.2799L53.5202 40.98L58.32 61.11Z" fill="#4850D8" ></path><path d="M103.92 51.7299C104.57 52.0024 104.99 52.6352 104.99 53.34C104.99 54.297 104.207 55.07 103.25 55.07C102.545 55.07 101.909 54.6414 101.64 53.99C101.371 53.3385 101.52 52.5969 102.02 52.0999C102.52 51.6033 103.27 51.4575 103.92 51.7299ZM102.36 54.22C102 53.8596 101.895 53.3207 102.09 52.8499C102.285 52.379 102.74 52.07 103.25 52.07C103.942 52.08 104.51 52.6379 104.51 53.33C104.51 53.8395 104.201 54.2949 103.73 54.49C103.259 54.685 102.72 54.5803 102.36 54.22Z" fill-rule="evenodd" fill="#1D1B3A" ></path><path d="M88.0807 52.7701C88.3917 52.489 88.8026 52.3447 89.2216 52.3691C89.6407 52.3935 90.0336 52.5847 90.3102 52.9L91.2008 53.8999C91.61 54.3499 92.3057 54.3856 92.7592 53.98L93.82 52.98C94.1425 52.6851 94.573 52.5371 95.0084 52.5713C95.4455 52.6055 95.8466 52.8184 96.12 53.16L96.67 53.8401C96.8697 54.0906 97.1693 54.2405 97.4901 54.25C97.8093 54.2591 98.1187 54.1319 98.3397 53.8999L99.6297 52.49L99.98 52.8101L98.69 54.22C98.3807 54.5604 97.937 54.7477 97.477 54.7323C97.017 54.7167 96.5865 54.5003 96.3 54.1399L95.75 53.4601C95.5585 53.2245 95.2802 53.0775 94.9773 53.0528C94.6761 53.0284 94.3765 53.1285 94.1506 53.33L93.08 54.3299C92.769 54.6127 92.3598 54.7602 91.9407 54.7399C91.5167 54.7225 91.1173 54.5306 90.8406 54.21L89.9501 53.2101C89.7553 52.9913 89.4819 52.8582 89.1905 52.8399C88.8991 52.8208 88.6143 52.9222 88.3999 53.12L87.1901 54.19C86.5419 54.7655 85.5515 54.712 84.9703 54.0701L83.61 52.6199L83.9603 52.3L85.3207 53.8C85.7234 54.2518 86.4175 54.292 86.8693 53.8899L88.0807 52.7701Z" fill="#FFB502" ></path><rect x="65.01000356674194" y="4.429999351501465" width="36.26" height="45.06" fill="#AA60FF" ></rect><rect x="65.01000356674194" y="4.429999351501465" width="36.26" height="3.65" fill="#8A43EF" ></rect><path d="M67.95 6.39C68.0091 6.67272 67.8909 6.96297 67.6513 7.12425C67.4118 7.28554 67.0982 7.28554 66.8587 7.12425C66.6191 6.96297 66.5009 6.67272 66.56 6.39C66.5009 6.10728 66.6191 5.81703 66.8587 5.65575C67.0982 5.49446 67.4118 5.49446 67.6513 5.65575C67.8909 5.81703 68.0091 6.10728 67.95 6.39Z" fill="#F5F9FC" ></path><path d="M70.0301 6.39007C69.9611 6.75985 69.6156 7.01177 69.2424 6.96434C68.8691 6.91677 68.5979 6.58646 68.6237 6.21114C68.6496 5.83567 68.9638 5.54584 69.3401 5.54995C69.7593 5.59724 70.065 5.96944 70.0301 6.39007Z" fill="#F5F9FC" ></path><path d="M72.12 6.38996C72.0513 6.75861 71.7079 7.01025 71.3358 6.9648C70.9635 6.91922 70.691 6.59204 70.7132 6.21771C70.7355 5.84353 71.045 5.55099 71.42 5.55C71.8433 5.59218 72.1548 5.96594 72.12 6.38996Z" fill="#F5F9FC" ></path><rect x="68.62999868392944" y="27.109999656677246" width="28.48" height="2.4" fill="#FCB6D9" ></rect><rect x="68.62999868392944" y="30.530001640319824" width="28.48" height="2.4" fill="#FCB6D9" ></rect><rect x="68.62999868392944" y="33.94999980926514" width="28.48" height="2.4" fill="#FCB6D9" ></rect><path d="M90.17 17.34C90.17 21.3711 86.9011 24.64 82.87 24.64C78.8389 24.64 75.57 21.3711 75.57 17.34C75.57 13.3089 78.8389 10.04 82.87 10.04C84.8074 10.0371 86.6645 10.805 88.0355 12.1745C89.405 13.5455 90.1729 15.4026 90.17 17.34Z" fill="#FCB6D9" ></path><path d="M88.26 17.16C88.26 20.1364 85.8464 22.55 82.87 22.55C79.8936 22.55 77.48 20.1364 77.48 17.16C77.48 14.1836 79.8936 11.77 82.87 11.77C85.8464 11.77 88.26 14.1836 88.26 17.16Z" fill="#FFCFE9" ></path><rect x="68.62999868392944" y="37.63000011444092" width="28.48" height="6.68" fill="#FCB6D9" ></rect></svg>